<svg width="234" height="209" viewBox="0 0 234 209" fill="none" xmlns="http://www.w3.org/2000/svg">
<g opacity="0.5">
<path d="M33.1196 103.956L142.641 41.0293L33.1196 103.956Z" fill="white"/>
<path d="M33.1196 103.956L142.641 41.0293" stroke="#96DAFC" stroke-width="26.9337" stroke-linecap="round"/>
</g>
<g opacity="0.5">
<path d="M59.1709 145.228L168.692 82.3008L59.1709 145.228Z" fill="white"/>
<path d="M59.1709 145.228L168.692 82.3008" stroke="#96DAFC" stroke-width="26.9337" stroke-linecap="round"/>
</g>
<g opacity="0.5">
<path d="M196.747 66.4884L205.283 61.5195L196.747 66.4884Z" fill="white"/>
<path d="M196.747 66.4884L205.283 61.5195" stroke="#96DAFC" stroke-width="26.9337" stroke-linecap="round"/>
</g>
<g opacity="0.5">
<path d="M97.8098 179.183L180.987 130.6L97.8098 179.183Z" fill="white"/>
<path d="M97.8098 179.183L180.987 130.6" stroke="#96DAFC" stroke-width="26.9337" stroke-linecap="round"/>
</g>
<path d="M201.435 135.019C202.768 135.154 203.74 136.346 203.605 137.678C203.471 139.011 202.279 139.983 200.947 139.849C199.614 139.714 198.642 138.522 198.776 137.19C198.911 135.857 200.102 134.885 201.435 135.019Z" stroke="#029EF2" stroke-width="1.25385"/>
<path d="M60.0464 184.987C62.2378 185.209 63.8371 187.168 63.6156 189.359C63.394 191.551 61.435 193.15 59.2437 192.928C57.0523 192.707 55.453 190.748 55.6745 188.556C55.8961 186.365 57.8551 184.766 60.0464 184.987Z" stroke="#0291DE" stroke-width="2.06187"/>
<path d="M115.355 21.1905C117.546 21.412 119.145 23.371 118.924 25.5624C118.702 27.7537 116.743 29.353 114.552 29.1315C112.36 28.91 110.761 26.9509 110.983 24.7596C111.204 22.5683 113.163 20.9689 115.355 21.1905Z" stroke="#0291DE" stroke-width="2.06187"/>
<path d="M23.2448 73.1484C24.251 73.1484 25.068 73.9654 25.068 74.9716C25.068 75.9778 24.251 76.7948 23.2448 76.7948C22.2386 76.7948 21.4216 75.9778 21.4216 74.9716C21.4216 73.9654 22.2386 73.1484 23.2448 73.1484Z" stroke="#029EF2" stroke-width="1.50715"/>
<path d="M164.849 192.041C165.856 192.041 166.672 192.858 166.672 193.864C166.672 194.87 165.856 195.687 164.849 195.687C163.843 195.687 163.026 194.87 163.026 193.864C163.026 192.858 163.843 192.041 164.849 192.041Z" stroke="#029EF2" stroke-width="1.50715"/>
<path d="M185.975 20.6934L187.402 13.516" stroke="#029EF2" stroke-width="0.878141"/>
<path d="M183.222 16.4316L190.399 17.8584" stroke="#029EF2" stroke-width="0.878141"/>
<path d="M30.9856 140.148L32.1153 132.918" stroke="#0291DE" stroke-width="0.878141"/>
<path d="M28.0576 136.002L35.2877 137.132" stroke="#0291DE" stroke-width="0.878141"/>
<path d="M183.146 171.793L183.791 164.504" stroke="#0291DE" stroke-width="0.878141"/>
<path d="M179.947 167.852L187.236 168.497" stroke="#0291DE" stroke-width="0.878141"/>
<path d="M117.031 51.8906C146.069 51.8906 169.646 75.4676 169.646 104.506C169.646 133.544 146.069 157.121 117.031 157.121C87.9925 157.121 64.4155 133.544 64.4155 104.506C64.4155 75.4676 87.9925 51.8906 117.031 51.8906Z" fill="#12ACFD"/>
<path d="M117 56.8672C143.292 56.8672 164.639 78.2142 164.639 104.506C164.639 130.798 143.292 152.145 117 152.145C90.7081 152.145 69.3611 130.798 69.3611 104.506C69.3611 78.2142 90.7081 56.8672 117 56.8672Z" fill="#029EF2"/>
<path d="M95.4858 106.254L108.365 118.841L138.515 88.6914" stroke="white" stroke-width="5.26884"/>
</svg>
