<svg width="43" height="41" viewBox="0 0 43 41" fill="none" xmlns="http://www.w3.org/2000/svg">
<ellipse cx="21.6817" cy="20.5" rx="20.8348" ry="20" fill="#E1E7FA"/>
<path fill-rule="evenodd" clip-rule="evenodd" d="M21.6623 13C23.5181 13 25.0312 14.5021 25.0514 16.3554L25.2158 16.3562C27.2873 16.3562 28.9718 18.0399 28.9718 20.1099V24.2469C28.9718 26.3162 27.2873 27.9999 25.2158 27.9999H18.1028C16.032 27.9999 14.3468 26.3162 14.3468 24.2469V20.1099C14.3468 18.0399 16.032 16.3562 18.1028 16.3562L18.2558 16.3555L18.2605 16.2096C18.3076 15.3588 18.658 14.5783 19.2593 13.9833C19.9028 13.345 20.7668 13.0263 21.6623 13ZM25.2158 17.4812L25.0515 17.4805L25.0516 18.667C25.0516 18.9775 24.7996 19.2295 24.4891 19.2295C24.1786 19.2295 23.9266 18.9775 23.9266 18.667L23.9265 17.4805H19.38L19.3801 18.667C19.3801 18.9775 19.1281 19.2295 18.8176 19.2295C18.5071 19.2295 18.2551 18.9775 18.2551 18.667L18.255 17.4805L18.1028 17.4812C16.6523 17.4812 15.4718 18.6602 15.4718 20.1099V24.2469C15.4718 25.6959 16.6523 26.8749 18.1028 26.8749H25.2158C26.6663 26.8749 27.8468 25.6959 27.8468 24.2469V20.1099C27.8468 18.6602 26.6663 17.4812 25.2158 17.4812ZM21.6601 14.125C21.0518 14.146 20.4818 14.356 20.0513 14.782C19.6271 15.2026 19.3893 15.7601 19.3803 16.3554L23.925 16.3555L23.9227 16.26C23.8537 15.0714 22.8657 14.125 21.6601 14.125Z" fill="#0032C8"/>
</svg>
