<svg width="25" height="24" viewBox="0 0 25 24" fill="none" xmlns="http://www.w3.org/2000/svg">
<g clip-path="url(#clip0_4344_157)">
<path d="M8 15.75C8 15.9489 7.92098 16.1397 7.78033 16.2803C7.63968 16.421 7.44891 16.5 7.25 16.5H4.25C4.05109 16.5 3.86032 16.421 3.71967 16.2803C3.57902 16.1397 3.5 15.9489 3.5 15.75V14.25C3.5 14.0511 3.57902 13.8603 3.71967 13.7197C3.86032 13.579 4.05109 13.5 4.25 13.5H7.25C7.44891 13.5 7.63968 13.579 7.78033 13.7197C7.92098 13.8603 8 14.0511 8 14.25V15.75Z" fill="white"/>
<path d="M21.5 21C22.2956 21 23.0587 20.6839 23.6213 20.1213C24.1839 19.5587 24.5 18.7956 24.5 18V6C24.5 5.20435 24.1839 4.44129 23.6213 3.87868C23.0587 3.31607 22.2956 3 21.5 3L3.5 3C2.70435 3 1.94129 3.31607 1.37868 3.87868C0.816072 4.44129 0.5 5.20435 0.5 6L0.5 18C0.5 18.7956 0.816072 19.5587 1.37868 20.1213C1.94129 20.6839 2.70435 21 3.5 21L21.5 21ZM2 18V10.5L23 10.5V18C23 18.3978 22.842 18.7794 22.5607 19.0607C22.2794 19.342 21.8978 19.5 21.5 19.5L3.5 19.5C3.10217 19.5 2.72065 19.342 2.43934 19.0607C2.15804 18.7794 2 18.3978 2 18ZM3.5 4.5L21.5 4.5C21.8978 4.5 22.2794 4.65804 22.5607 4.93934C22.842 5.22064 23 5.60217 23 6V7.5L2 7.5L2 6C2 5.60217 2.15804 5.22064 2.43934 4.93934C2.72065 4.65804 3.10217 4.5 3.5 4.5Z" fill="white"/>
</g>
<defs>
<clipPath id="clip0_4344_157">
<rect width="24" height="24" fill="white" transform="matrix(-1 0 0 -1 24.5 24)"/>
</clipPath>
</defs>
</svg>
