<svg width="24" height="17" viewBox="0 0 24 17" fill="none" xmlns="http://www.w3.org/2000/svg">
<path d="M21.0563 5.93145C20.0063 5.35957 18.6094 4.95645 17.0625 4.75957V4.0752C17.0625 2.94082 16.1625 1.90957 14.5312 1.17832C13.05 0.50332 11.0813 0.137695 9 0.137695C6.91875 0.137695 4.95 0.50332 3.46875 1.17832C1.8375 1.90957 0.9375 2.94082 0.9375 4.0752V7.8252C0.9375 8.95957 1.8375 9.99082 3.46875 10.7221C4.57369 11.1968 5.74245 11.5063 6.9375 11.6408V12.3252C6.9375 13.4596 7.8375 14.4908 9.46875 15.2221C10.95 15.8971 12.9187 16.2627 15 16.2627C17.0812 16.2627 19.05 15.8971 20.5312 15.2221C22.1625 14.4908 23.0625 13.4596 23.0625 12.3252V8.5752C23.0625 7.57207 22.35 6.63457 21.0563 5.93145ZM20.5125 6.91582C21.4312 7.42207 21.9375 8.00332 21.9375 8.5752C21.9375 9.90645 19.0875 11.3877 15 11.3877C14.3357 11.3856 13.6721 11.3449 13.0125 11.2658C13.5331 11.1274 14.0411 10.9455 14.5312 10.7221C16.1625 9.99082 17.0625 8.95957 17.0625 7.8252V5.89395C18.4125 6.08145 19.6219 6.4377 20.5125 6.91582ZM7.56562 10.5721H7.5375C7.2 10.5439 6.87187 10.4971 6.5625 10.4502V7.83457C7.36969 7.95223 8.18428 8.01176 9 8.0127C9.81572 8.01176 10.6303 7.95223 11.4375 7.83457V10.4502C10.6313 10.5779 9.81621 10.6406 9 10.6377C8.52107 10.6401 8.04233 10.6182 7.56562 10.5721ZM15.9375 6.12832V7.8252C15.9375 8.71582 14.6531 9.68145 12.5625 10.2158V7.61895C13.2396 7.47279 13.8994 7.25597 14.5312 6.97207C15.0371 6.75791 15.5105 6.4739 15.9375 6.12832ZM9 1.2627C13.0875 1.2627 15.9375 2.74395 15.9375 4.0752C15.9375 5.40645 13.0875 6.8877 9 6.8877C4.9125 6.8877 2.0625 5.40645 2.0625 4.0752C2.0625 2.74395 4.9125 1.2627 9 1.2627ZM2.0625 7.8252V6.12832C2.48952 6.4739 2.96288 6.75791 3.46875 6.97207C4.10056 7.25597 4.76043 7.47279 5.4375 7.61895V10.2158C3.34688 9.68145 2.0625 8.71582 2.0625 7.8252ZM8.0625 12.3252V11.7346C8.37187 11.7533 8.68125 11.7627 9 11.7627C9.31875 11.7627 9.73125 11.7533 10.0969 11.7252C10.5329 11.891 10.9811 12.0227 11.4375 12.1189V14.7158C9.34688 14.1814 8.0625 13.2158 8.0625 12.3252ZM12.5625 14.9502V12.3346C13.3697 12.4519 14.1843 12.5114 15 12.5127C15.8157 12.5118 16.6303 12.4522 17.4375 12.3346V14.9502C15.8221 15.2002 14.1779 15.2002 12.5625 14.9502ZM18.5625 14.7158V12.1189C19.2396 11.9728 19.8994 11.756 20.5312 11.4721C21.0371 11.2579 21.5105 10.9739 21.9375 10.6283V12.3252C21.9375 13.2158 20.6531 14.1814 18.5625 14.7158Z" fill="white"/>
</svg>
