<svg width="25" height="24" viewBox="0 0 25 24" fill="none" xmlns="http://www.w3.org/2000/svg">
<path fill-rule="evenodd" clip-rule="evenodd" d="M6.75 13C10.819 13 11 14.38 11 17.25C11 18.688 11 19.711 10.396 20.46C9.701 21.323 8.436 21.5 6.75 21.5C5.064 21.5 3.799 21.323 3.104 20.46C2.5 19.711 2.5 18.689 2.5 17.275L3.25 17.25H2.5C2.5 14.38 2.681 13 6.75 13ZM17.75 13C21.819 13 22 14.38 22 17.25C22 18.688 22 19.711 21.396 20.46C20.701 21.323 19.436 21.5 17.75 21.5C16.064 21.5 14.799 21.323 14.104 20.46C13.5 19.711 13.5 18.689 13.5 17.275L14.25 17.25H13.5C13.5 14.38 13.681 13 17.75 13ZM6.95616 14.5004L6.75 14.5C4.14103 14.5 4.00723 14.6872 4.00037 16.8771L4.00079 17.7302C4.00553 18.6011 4.03871 19.2303 4.271 19.52C4.536 19.848 5.323 20 6.75 20C8.177 20 8.964 19.847 9.229 19.519C9.5 19.182 9.5 18.382 9.5 17.274C9.5 14.7738 9.5 14.5122 6.95616 14.5004ZM17.9562 14.5004L17.75 14.5C15.141 14.5 15.0072 14.6872 15.0004 16.8771L15.0008 17.7302C15.0055 18.6011 15.0387 19.2303 15.271 19.52C15.536 19.848 16.323 20 17.75 20C19.177 20 19.964 19.847 20.229 19.519C20.5 19.182 20.5 18.382 20.5 17.274C20.5 14.7738 20.5 14.5122 17.9562 14.5004ZM6.75 2C10.819 2 11 3.38 11 6.25C11 7.688 11 8.711 10.396 9.46C9.701 10.323 8.436 10.5 6.75 10.5C5.064 10.5 3.799 10.323 3.104 9.46C2.5 8.711 2.5 7.689 2.5 6.275L3.25 6.25H2.5C2.5 3.38 2.681 2 6.75 2ZM17.75 2C21.819 2 22 3.38 22 6.25C22 7.688 22 8.711 21.396 9.46C20.701 10.323 19.436 10.5 17.75 10.5C16.064 10.5 14.799 10.323 14.104 9.46C13.5 8.711 13.5 7.689 13.5 6.275L14.25 6.25H13.5C13.5 3.38 13.681 2 17.75 2ZM6.95616 3.50045L6.75 3.5C4.14103 3.5 4.00723 3.68721 4.00037 5.87705L4.00079 6.73018C4.00553 7.60114 4.03871 8.23029 4.271 8.52C4.536 8.848 5.323 9 6.75 9C8.177 9 8.964 8.847 9.229 8.519C9.5 8.182 9.5 7.382 9.5 6.274C9.5 3.7738 9.5 3.51222 6.95616 3.50045ZM17.9562 3.50045L17.75 3.5C15.141 3.5 15.0072 3.68721 15.0004 5.87705L15.0008 6.73018C15.0055 7.60114 15.0387 8.23029 15.271 8.52C15.536 8.848 16.323 9 17.75 9C19.177 9 19.964 8.847 20.229 8.519C20.5 8.182 20.5 7.382 20.5 6.274C20.5 3.7738 20.5 3.51222 17.9562 3.50045Z" fill="white"/>
</svg>
