<svg width="42" height="41" viewBox="0 0 42 41" fill="none" xmlns="http://www.w3.org/2000/svg">
<ellipse cx="20.9184" cy="20.5" rx="20.9184" ry="20" fill="#E1E7FA"/>
<path fill-rule="evenodd" clip-rule="evenodd" d="M23.5496 13.75C26.0298 13.75 28.0473 15.7675 28.0473 18.2485V23.6313C28.0473 26.1115 26.0298 28.1298 23.5496 28.1298H17.0666C14.5863 28.1298 12.5681 26.1115 12.5681 23.6313V18.2485C12.5681 15.7675 14.5863 13.75 17.0666 13.75H23.5496ZM23.5496 14.875H17.0666C15.2066 14.875 13.6931 16.3885 13.6931 18.2485V23.6313C13.6931 25.4913 15.2066 27.0048 17.0666 27.0048H23.5496C25.4096 27.0048 26.9223 25.4913 26.9223 23.6313V23.4213L24.4489 23.4217C23.0261 23.4217 21.8681 22.2645 21.8674 20.8425C21.8674 19.419 23.0254 18.261 24.4489 18.2602L26.9223 18.2598V18.2485C26.9223 16.3885 25.4096 14.875 23.5496 14.875ZM26.9223 19.3848L24.4489 19.3852C23.6456 19.386 22.9924 20.0392 22.9924 20.8417C22.9924 21.6435 23.6464 22.2967 24.4489 22.2967L26.9223 22.2963V19.3848ZM24.7921 20.2327C25.1026 20.2327 25.3546 20.4847 25.3546 20.7952C25.3546 21.1057 25.1026 21.3577 24.7921 21.3577H24.5581C24.2476 21.3577 23.9956 21.1057 23.9956 20.7952C23.9956 20.4847 24.2476 20.2327 24.5581 20.2327H24.7921ZM20.5818 17.1536C20.8923 17.1536 21.1443 17.4056 21.1443 17.7161C21.1443 18.0266 20.8923 18.2786 20.5818 18.2786H16.5326C16.2221 18.2786 15.9701 18.0266 15.9701 17.7161C15.9701 17.4056 16.2221 17.1536 16.5326 17.1536H20.5818Z" fill="#0032C8"/>
</svg>
