<svg width="34" height="33" viewBox="0 0 34 33" fill="none" xmlns="http://www.w3.org/2000/svg">
<circle cx="16.9699" cy="16.5004" r="16.2651" fill="#E1E7FA"/>
<path d="M15.7434 20.8538C16.0445 20.7901 17.8796 20.7901 18.1808 20.8538C18.4382 20.9133 18.7166 21.0522 18.7166 21.3556C18.7016 21.6444 18.5322 21.9004 18.2981 22.063C17.9946 22.2997 17.6383 22.4495 17.2659 22.5035C17.06 22.5302 16.8576 22.5308 16.6588 22.5035C16.2858 22.4495 15.9296 22.2997 15.6266 22.0624C15.392 21.9004 15.2225 21.6444 15.2076 21.3556C15.2076 21.0522 15.486 20.9133 15.7434 20.8538ZM16.9976 10.4756C18.2507 10.4756 19.5308 11.0702 20.2912 12.0567C20.7845 12.6919 21.0108 13.3266 21.0108 14.3131V14.5698C21.0108 15.3263 21.2108 15.7723 21.6508 16.2862C21.9843 16.6648 22.0909 17.1508 22.0909 17.678C22.0909 18.2046 21.9179 18.7046 21.5712 19.1105C21.1174 19.5971 20.4774 19.9077 19.8242 19.9617C18.8776 20.0424 17.9304 20.1104 16.9707 20.1104C16.0104 20.1104 15.0638 20.0697 14.1172 19.9617C13.4634 19.9077 12.8234 19.5971 12.3702 19.1105C12.0235 18.7046 11.8499 18.2046 11.8499 17.678C11.8499 17.1508 11.9571 16.6648 12.29 16.2862C12.7438 15.7723 12.9306 15.3263 12.9306 14.5698V14.3131C12.9306 13.2999 13.1832 12.6373 13.7035 11.9888C14.4771 11.0429 15.717 10.4756 16.9438 10.4756H16.9976Z" fill="#0032C8"/>
</svg>
