<svg xmlns="http://www.w3.org/2000/svg" width="21" height="21" viewBox="0 0 21 21" fill="none">
  <path fill-rule="evenodd" clip-rule="evenodd" d="M10.2808 0C12.8947 0 15.054 1.99166 15.3202 4.53892L15.3945 4.5398C16.8445 4.5398 18.6075 5.5028 19.2025 8.2038L19.9915 14.3108C20.2745 16.2818 19.9205 17.8628 18.9375 18.9968C17.9595 20.1248 16.4115 20.7218 14.4605 20.7218H6.11253C3.96953 20.7218 2.47653 20.1968 1.54753 19.1178C0.614531 18.0358 0.302531 16.4128 0.620531 14.2948L1.39653 8.2688C1.90653 5.5058 3.77153 4.5398 5.21553 4.5398C5.34019 3.39028 5.85853 2.2967 6.68083 1.477C7.62583 0.538 8.92883 0 10.2598 0H10.2808ZM15.3945 6.0398H5.21553C4.77453 6.0398 3.30053 6.2178 2.87753 8.5018L2.10553 14.5018C1.85453 16.1848 2.04853 17.4028 2.68353 18.1398C3.31053 18.8678 4.43253 19.2218 6.11253 19.2218H14.4605C15.5085 19.2218 16.9395 19.0128 17.8035 18.0148C18.4895 17.2238 18.7255 16.0458 18.5055 14.5128L17.7265 8.4608C17.3945 6.9698 16.5185 6.0398 15.3945 6.0398ZM13.1973 8.8239C13.6113 8.8239 13.9703 9.1599 13.9703 9.5739C13.9703 9.9879 13.6573 10.3239 13.2433 10.3239H13.1973C12.7833 10.3239 12.4473 9.9879 12.4473 9.5739C12.4473 9.1599 12.7833 8.8239 13.1973 8.8239ZM7.36723 8.8239C7.78123 8.8239 8.14023 9.1599 8.14023 9.5739C8.14023 9.9879 7.82623 10.3239 7.41223 10.3239H7.36723C6.95323 10.3239 6.61723 9.9879 6.61723 9.5739C6.61723 9.1599 6.95323 8.8239 7.36723 8.8239ZM10.2778 1.5H10.2628C9.32183 1.5 8.40483 1.879 7.73983 2.54C7.19813 3.07927 6.84385 3.7882 6.72924 4.53933L13.8085 4.53961C13.5516 2.82138 12.0657 1.5 10.2778 1.5Z" fill="white"/>
</svg>