<svg width="13" height="14" viewBox="0 0 13 14" fill="none" xmlns="http://www.w3.org/2000/svg">
<g id="icons / outline" clip-path="url(#clip0_4361_5133)">
<path id="Vector" d="M9.54037 8.90495C10.3271 7.83138 10.6795 6.50035 10.527 5.17813C10.3745 3.85592 9.72839 2.64004 8.71793 1.77374C7.70747 0.907446 6.40717 0.454626 5.07718 0.505873C3.74718 0.55712 2.48558 1.10865 1.54478 2.05014C0.60397 2.99162 0.0533381 4.25361 0.00304289 5.58364C-0.0472523 6.91367 0.406498 8.21364 1.27352 9.22348C2.14053 10.2333 3.35688 10.8786 4.6792 11.0301C6.00152 11.1817 7.33231 10.8283 8.40531 10.0408H8.4045C8.42887 10.0733 8.45487 10.1042 8.48412 10.1343L11.6122 13.2624C11.7646 13.4148 11.9713 13.5005 12.1868 13.5006C12.4023 13.5007 12.6091 13.4151 12.7615 13.2628C12.914 13.1104 12.9997 12.9038 12.9998 12.6882C12.9998 12.4727 12.9143 12.266 12.7619 12.1135L9.63381 8.98538C9.60476 8.95598 9.57352 8.92882 9.54037 8.90414V8.90495ZM9.75 5.7817C9.75 6.36854 9.63441 6.94964 9.40983 7.49181C9.18526 8.03399 8.85609 8.52662 8.44113 8.94158C8.02617 9.35654 7.53354 9.68571 6.99136 9.91028C6.44919 10.1349 5.86809 10.2504 5.28125 10.2504C4.6944 10.2504 4.1133 10.1349 3.57113 9.91028C3.02896 9.68571 2.53633 9.35654 2.12136 8.94158C1.7064 8.52662 1.37724 8.03399 1.15266 7.49181C0.928085 6.94964 0.812497 6.36854 0.812497 5.7817C0.812497 4.59651 1.28331 3.45987 2.12136 2.62181C2.95942 1.78376 4.09606 1.31295 5.28125 1.31295C6.46643 1.31295 7.60308 1.78376 8.44113 2.62181C9.27918 3.45987 9.75 4.59651 9.75 5.7817Z" fill="#959595"/>
</g>
<defs>
<clipPath id="clip0_4361_5133">
<rect width="13" height="13" fill="white" transform="translate(0 0.5)"/>
</clipPath>
</defs>
</svg>
