<svg width="25" height="24" viewBox="0 0 25 24" fill="none" xmlns="http://www.w3.org/2000/svg">
<path fill-rule="evenodd" clip-rule="evenodd" d="M12.7672 2.00098C13.4832 2.00098 14.1792 2.29498 14.6782 2.80598C15.1762 3.31998 15.4512 4.02498 15.4302 4.73998C15.4322 4.90098 15.4852 5.08698 15.5812 5.24998C15.7402 5.51998 15.9912 5.70998 16.2892 5.78798C16.5872 5.86198 16.8992 5.82198 17.1642 5.66498C18.4442 4.93398 20.0732 5.37198 20.8042 6.64198L21.4272 7.72098C21.4432 7.74998 21.4572 7.77798 21.4692 7.80698C22.1312 9.05798 21.6892 10.633 20.4592 11.352C20.2802 11.455 20.1352 11.599 20.0352 11.773C19.8802 12.042 19.8372 12.362 19.9152 12.656C19.9952 12.956 20.1862 13.205 20.4552 13.359C21.0622 13.708 21.5152 14.296 21.6962 14.975C21.8772 15.653 21.7782 16.389 21.4252 16.996L20.7612 18.102C20.0302 19.358 18.4012 19.793 17.1342 19.061C16.9652 18.964 16.7702 18.911 16.5762 18.906H16.5702C16.2812 18.906 15.9842 19.029 15.7682 19.244C15.5492 19.463 15.4292 19.755 15.4312 20.065C15.4242 21.534 14.2292 22.722 12.7672 22.722H11.5142C10.0452 22.722 8.8502 21.528 8.8502 20.059C8.8482 19.878 8.7962 19.69 8.6992 19.527C8.5422 19.253 8.2882 19.057 7.9952 18.979C7.7042 18.901 7.3852 18.944 7.1232 19.096C6.4952 19.446 5.7562 19.531 5.0802 19.341C4.4052 19.15 3.8222 18.686 3.4802 18.071L2.8552 16.994C2.1242 15.726 2.5592 14.101 3.8252 13.369C4.1842 13.162 4.4072 12.776 4.4072 12.362C4.4072 11.948 4.1842 11.561 3.8252 11.354C2.5582 10.618 2.1242 8.98898 2.8542 7.72098L3.5322 6.60798C4.2532 5.35398 5.8832 4.91198 7.1542 5.64198C7.3272 5.74498 7.5152 5.79698 7.7062 5.79898C8.3292 5.79898 8.8502 5.28498 8.8602 4.65298C8.8562 3.95598 9.1312 3.28698 9.6322 2.78198C10.1352 2.27798 10.8032 2.00098 11.5142 2.00098H12.7672ZM12.7672 3.50098H11.5142C11.2042 3.50098 10.9142 3.62198 10.6952 3.83998C10.4772 4.05898 10.3582 4.34998 10.3602 4.65998C10.3392 6.12198 9.1442 7.29898 7.6972 7.29898C7.2332 7.29398 6.7862 7.16898 6.3982 6.93698C5.8532 6.62698 5.1412 6.81798 4.8222 7.37298L4.1452 8.48598C3.8352 9.02398 4.0252 9.73498 4.5772 10.056C5.3962 10.53 5.9072 11.414 5.9072 12.362C5.9072 13.31 5.3962 14.193 4.5752 14.668C4.0262 14.986 3.8362 15.693 4.1542 16.243L4.7852 17.331C4.9412 17.612 5.1962 17.815 5.4912 17.898C5.7852 17.98 6.1092 17.945 6.3792 17.795C6.7762 17.562 7.2382 17.441 7.7022 17.441C7.9312 17.441 8.1602 17.47 8.3842 17.53C9.0602 17.712 9.6472 18.164 9.9952 18.771C10.2212 19.152 10.3462 19.597 10.3502 20.051C10.3502 20.701 10.8722 21.222 11.5142 21.222H12.7672C13.4062 21.222 13.9282 20.704 13.9312 20.065C13.9272 19.359 14.2032 18.688 14.7082 18.183C15.2062 17.685 15.9022 17.386 16.5982 17.406C17.0542 17.417 17.4932 17.54 17.8802 17.76C18.4372 18.079 19.1482 17.889 19.4702 17.339L20.1342 16.232C20.2822 15.977 20.3252 15.657 20.2462 15.362C20.1682 15.067 19.9722 14.811 19.7082 14.66C19.0902 14.304 18.6492 13.73 18.4662 13.042C18.2852 12.367 18.3842 11.63 18.7372 11.023C18.9672 10.623 19.3042 10.286 19.7082 10.054C20.2502 9.73698 20.4402 9.02798 20.1252 8.47598C20.1122 8.45398 20.1002 8.43098 20.0902 8.40698L19.5042 7.39098C19.1852 6.83598 18.4752 6.64498 17.9182 6.96198C17.3162 7.31798 16.6002 7.41998 15.9122 7.23898C15.2252 7.06098 14.6492 6.62598 14.2902 6.01198C14.0602 5.62798 13.9352 5.18098 13.9312 4.72598C13.9402 4.38398 13.8202 4.07698 13.6022 3.85198C13.3852 3.62798 13.0802 3.50098 12.7672 3.50098ZM12.1451 8.97508C14.0121 8.97508 15.5311 10.4951 15.5311 12.3621C15.5311 14.2291 14.0121 15.7471 12.1451 15.7471C10.2781 15.7471 8.7591 14.2291 8.7591 12.3621C8.7591 10.4951 10.2781 8.97508 12.1451 8.97508ZM12.1451 10.4751C11.1051 10.4751 10.2591 11.3221 10.2591 12.3621C10.2591 13.4021 11.1051 14.2471 12.1451 14.2471C13.1851 14.2471 14.0311 13.4021 14.0311 12.3621C14.0311 11.3221 13.1851 10.4751 12.1451 10.4751Z" fill="white"/>
</svg>
