<svg xmlns="http://www.w3.org/2000/svg" width="14" height="14" viewBox="0 0 14 14" fill="none">
  <path d="M10.6126 8.54602C10.4399 8.71335 10.3606 8.95535 10.3999 9.19268L10.9926 12.4727C11.0426 12.7507 10.9253 13.032 10.6926 13.1927C10.4646 13.3594 10.1613 13.3793 9.91258 13.246L6.95992 11.706C6.85725 11.6513 6.74325 11.622 6.62658 11.6187H6.44592C6.38325 11.628 6.32192 11.648 6.26592 11.6787L3.31258 13.226C3.16658 13.2993 3.00125 13.3253 2.83925 13.2993C2.44458 13.2247 2.18125 12.8487 2.24592 12.452L2.83925 9.17202C2.87858 8.93268 2.79925 8.68935 2.62658 8.51935L0.219251 6.18602C0.0179172 5.99068 -0.0520828 5.69735 0.0399172 5.43268C0.129251 5.16868 0.357251 4.97602 0.632584 4.93268L3.94592 4.45202C4.19792 4.42602 4.41925 4.27268 4.53258 4.04602L5.99258 1.05268C6.02725 0.986016 6.07192 0.924682 6.12592 0.872682L6.18592 0.826016C6.21725 0.791349 6.25325 0.762682 6.29325 0.739349L6.36592 0.712682L6.47925 0.666016H6.75992C7.01058 0.692016 7.23125 0.842016 7.34658 1.06602L8.82592 4.04602C8.93258 4.26402 9.13992 4.41535 9.37925 4.45202L12.6926 4.93268C12.9726 4.97268 13.2066 5.16602 13.2993 5.43268C13.3866 5.70002 13.3113 5.99335 13.1059 6.18602L10.6126 8.54602Z" fill="#F2C94C"/>
</svg>