<svg width="17" height="16" viewBox="0 0 17 16" fill="none" xmlns="http://www.w3.org/2000/svg">
<path fill-rule="evenodd" clip-rule="evenodd" d="M8.16791 3C8.10725 3 7.95791 3.01667 7.87858 3.17533L6.66125 5.60933C6.46858 5.994 6.09725 6.26133 5.66791 6.32267L2.94258 6.71533C2.76258 6.74133 2.70125 6.87467 2.68258 6.93067C2.66591 6.98467 2.63925 7.122 2.76325 7.24067L4.73391 9.134C5.04791 9.436 5.19058 9.87133 5.11591 10.2973L4.65191 12.9707C4.62325 13.138 4.72791 13.2353 4.77458 13.2687C4.82391 13.306 4.95591 13.38 5.11925 13.2947L7.55591 12.0313C7.93991 11.8333 8.39725 11.8333 8.77991 12.0313L11.2159 13.294C11.3799 13.3787 11.5119 13.3047 11.5619 13.2687C11.6086 13.2353 11.7132 13.138 11.6846 12.9707L11.2192 10.2973C11.1446 9.87133 11.2872 9.436 11.6012 9.134L13.5719 7.24067C13.6966 7.122 13.6699 6.984 13.6526 6.93067C13.6346 6.87467 13.5732 6.74133 13.3932 6.71533L10.6679 6.32267C10.2392 6.26133 9.86791 5.994 9.67525 5.60867L8.45658 3.17533C8.37791 3.01667 8.22858 3 8.16791 3ZM4.96591 14.3333C4.69058 14.3333 4.41725 14.2467 4.18325 14.076C3.77925 13.78 3.58125 13.2913 3.66725 12.7993L4.13125 10.126C4.14858 10.0267 4.11458 9.926 4.04125 9.85533L2.07058 7.962C1.70791 7.61467 1.57791 7.10133 1.73125 6.62467C1.88591 6.14267 2.29525 5.798 2.79991 5.726L5.52525 5.33333C5.63058 5.31867 5.72125 5.254 5.76658 5.162L6.98458 2.72733C7.20925 2.27867 7.66258 2 8.16791 2C8.67325 2 9.12658 2.27867 9.35125 2.72733L10.5699 5.16133C10.6159 5.254 10.7059 5.31867 10.8106 5.33333L13.5359 5.726C14.0406 5.798 14.4499 6.14267 14.6046 6.62467C14.7579 7.10133 14.6272 7.61467 14.2646 7.962L12.2939 9.85533C12.2206 9.926 12.1872 10.0267 12.2046 10.1253L12.6692 12.7993C12.7546 13.292 12.5566 13.7807 12.1519 14.076C11.7419 14.3767 11.2079 14.4173 10.7552 14.1813L8.31991 12.9193C8.22458 12.87 8.11058 12.87 8.01525 12.9193L5.57991 14.182C5.38525 14.2833 5.17525 14.3333 4.96591 14.3333Z" fill="#D4D4D4"/>
</svg>
