<svg xmlns="http://www.w3.org/2000/svg" width="14" height="15" viewBox="0 0 14 15" fill="none">
    <path fill-rule="evenodd" clip-rule="evenodd" d="M0.333008 7.96264C0.333008 6.33197 1.65967 5.0053 3.29034 5.0053H3.91167C4.18767 5.0053 4.41167 5.2293 4.41167 5.5053C4.41167 5.7813 4.18767 6.0053 3.91167 6.0053H3.29034C2.21034 6.0053 1.33301 6.8833 1.33301 7.96264L1.33301 11.2126C1.33301 12.2906 2.21034 13.168 3.29034 13.168H10.7097C11.789 13.168 12.6663 12.2906 12.6663 11.2126V7.9553C12.6663 6.88064 11.7917 6.0053 10.717 6.0053H10.0883C9.81234 6.0053 9.58834 5.7813 9.58834 5.5053C9.58834 5.2293 9.81234 5.0053 10.0883 5.0053H10.717C12.3437 5.0053 13.6663 6.3293 13.6663 7.9553V11.2126C13.6663 12.842 12.3403 14.168 10.7097 14.168H3.29034C1.65967 14.168 0.333008 12.842 0.333008 11.2126L0.333008 7.96264ZM4.70234 2.5759L6.64567 0.623902C6.66295 0.606488 6.68092 0.590895 6.69994 0.576624L6.64567 0.623902C6.66896 0.600283 6.69441 0.579277 6.72154 0.561052C6.73384 0.553031 6.74655 0.545293 6.75962 0.538122C6.76983 0.532304 6.78049 0.526948 6.79132 0.521984C6.80089 0.517775 6.81046 0.513735 6.82019 0.509991C6.83286 0.504964 6.84588 0.500563 6.85908 0.496702C6.86948 0.493793 6.87985 0.491119 6.89034 0.488775C6.90308 0.485797 6.91589 0.483453 6.9288 0.481607C6.93719 0.480563 6.94599 0.479543 6.95485 0.478754C6.97005 0.477228 6.98483 0.47657 6.99967 0.47657L7.04101 0.479969L7.06749 0.481337C7.06862 0.48149 7.06975 0.481647 7.07088 0.481809L6.99967 0.47657C7.03668 0.47657 7.07333 0.480667 7.10895 0.488632C7.1195 0.491119 7.12987 0.493793 7.14011 0.496786C7.15347 0.500563 7.16649 0.504964 7.17931 0.509893C7.18888 0.513735 7.19846 0.517776 7.20788 0.522099C7.21886 0.526949 7.22952 0.532303 7.23998 0.538041C7.2528 0.545293 7.26551 0.55303 7.27784 0.561302C7.28514 0.565982 7.29236 0.571115 7.29944 0.576447C7.32033 0.59232 7.33997 0.609617 7.35817 0.628332L9.29767 2.5759C9.39501 2.67324 9.44368 2.80124 9.44368 2.92857C9.44368 3.05657 9.39501 3.18524 9.29634 3.28257C9.10034 3.47724 8.78434 3.47657 8.58967 3.28124L7.49967 2.18797L7.49967 9.0041C7.49967 9.2801 7.27567 9.5041 6.99967 9.5041C6.72367 9.5041 6.49967 9.2801 6.49967 9.0041L6.49967 2.18664L5.41034 3.28124C5.21567 3.47657 4.89967 3.4779 4.70367 3.28257C4.50767 3.0879 4.50767 2.7719 4.70234 2.5759Z" fill="#8E8EA9"/>
</svg>