<svg width="25" height="24" viewBox="0 0 25 24" fill="none" xmlns="http://www.w3.org/2000/svg">
<path d="M14 14.25V18.75C14 18.9489 14.079 19.1397 14.2197 19.2803C14.3603 19.421 14.5511 19.5 14.75 19.5H19.25C19.4489 19.5 19.6397 19.421 19.7803 19.2803C19.921 19.1397 20 18.9489 20 18.75V14.25C20 14.0511 19.921 13.8603 19.7803 13.7197C19.6397 13.579 19.4489 13.5 19.25 13.5H14.75C14.5511 13.5 14.3603 13.579 14.2197 13.7197C14.079 13.8603 14 14.0511 14 14.25ZM15.5 18V15H18.5V18H15.5ZM5 0C4.89007 4.12201e-05 4.78149 0.0242478 4.68196 0.0709058C4.58242 0.117564 4.49436 0.185533 4.424 0.27L0.674 4.77C0.561649 4.90473 0.500079 5.07457 0.5 5.25V7.5C0.5 8.832 1.079 10.0305 2 10.854V23.25C2 23.4489 2.07902 23.6397 2.21967 23.7803C2.36032 23.921 2.55109 24 2.75 24H22.25C22.4489 24 22.6397 23.921 22.7803 23.7803C22.921 23.6397 23 23.4489 23 23.25V10.854C23.921 10.029 24.5 8.832 24.5 7.5V5.223C24.5 5.088 24.5 4.98 24.326 4.77L20.576 0.27C20.5056 0.185533 20.4176 0.117564 20.318 0.0709058C20.2185 0.0242478 20.1099 4.12201e-05 20 0H5ZM5 10.5C4.20435 10.5 3.44129 10.1839 2.87868 9.62132C2.31607 9.05871 2 8.29565 2 7.5V6H8V7.5C8 8.29565 7.68393 9.05871 7.12132 9.62132C6.55871 10.1839 5.79565 10.5 5 10.5ZM12.5 10.5C11.7044 10.5 10.9413 10.1839 10.3787 9.62132C9.81607 9.05871 9.5 8.29565 9.5 7.5V6H15.5V7.5C15.5 8.29565 15.1839 9.05871 14.6213 9.62132C14.0587 10.1839 13.2956 10.5 12.5 10.5ZM20 10.5C19.2044 10.5 18.4413 10.1839 17.8787 9.62132C17.3161 9.05871 17 8.29565 17 7.5V6H23V7.5C23 8.29565 22.6839 9.05871 22.1213 9.62132C21.5587 10.1839 20.7956 10.5 20 10.5ZM5 22.5H3.5V11.745C4.44545 12.0801 5.47582 12.0894 6.42716 11.7714C7.3785 11.4534 8.19615 10.8263 8.75 9.99C9.16048 10.6086 9.71779 11.116 10.3722 11.4667C11.0265 11.8175 11.7576 12.0007 12.5 12C13.2426 12.0005 13.9737 11.8171 14.6281 11.4661C15.2825 11.1151 15.8397 10.6074 16.25 9.9885C16.8039 10.8248 17.6215 11.4519 18.5728 11.7699C19.5242 12.0879 20.5546 12.0786 21.5 11.7435V22.5H12.5V14.25C12.5 14.0511 12.421 13.8603 12.2803 13.7197C12.1397 13.579 11.9489 13.5 11.75 13.5H5.75C5.55109 13.5 5.36032 13.579 5.21967 13.7197C5.07902 13.8603 5 14.0511 5 14.25V22.5ZM8.21 4.5H2.852L5.351 1.5H9.209L8.21 4.5ZM15.209 4.5H9.791L10.79 1.5H14.21L15.209 4.5ZM16.79 4.5L15.791 1.5H19.649L22.1495 4.5H16.79ZM6.5 22.5V15H11V22.5H6.5Z" fill="white"/>
</svg>
