<svg width="43" height="41" viewBox="0 0 43 41" fill="none" xmlns="http://www.w3.org/2000/svg">
<ellipse cx="21.6817" cy="20.5" rx="20.8348" ry="20" fill="#E1E7FA"/>
<path d="M22.7472 21.8498V24.5498C22.7472 24.6692 22.7946 24.7836 22.879 24.868C22.9634 24.9524 23.0779 24.9998 23.1972 24.9998H25.8972C26.0166 24.9998 26.131 24.9524 26.2154 24.868C26.2998 24.7836 26.3472 24.6692 26.3472 24.5498V21.8498C26.3472 21.7305 26.2998 21.616 26.2154 21.5316C26.131 21.4472 26.0166 21.3998 25.8972 21.3998H23.1972C23.0779 21.3998 22.9634 21.4472 22.879 21.5316C22.7946 21.616 22.7472 21.7305 22.7472 21.8498ZM23.6472 24.0998V22.2998H25.4472V24.0998H23.6472ZM17.3472 13.2998C17.2813 13.2998 17.2161 13.3144 17.1564 13.3423C17.0967 13.3703 17.0438 13.4111 17.0016 13.4618L14.7516 16.1618C14.6842 16.2426 14.6473 16.3445 14.6472 16.4498V17.7998C14.6472 18.599 14.9946 19.3181 15.5472 19.8122V27.2498C15.5472 27.3692 15.5946 27.4836 15.679 27.568C15.7634 27.6524 15.8779 27.6998 15.9972 27.6998H27.6972C27.8166 27.6998 27.931 27.6524 28.0154 27.568C28.0998 27.4836 28.1472 27.3692 28.1472 27.2498V19.8122C28.6998 19.3172 29.0472 18.599 29.0472 17.7998V16.4336C29.0472 16.3526 29.0472 16.2878 28.9428 16.1618L26.6928 13.4618C26.6506 13.4111 26.5978 13.3703 26.538 13.3423C26.4783 13.3144 26.4132 13.2998 26.3472 13.2998H17.3472ZM17.3472 19.5998C16.8698 19.5998 16.412 19.4102 16.0744 19.0726C15.7369 18.735 15.5472 18.2772 15.5472 17.7998V16.8998H19.1472V17.7998C19.1472 18.2772 18.9576 18.735 18.62 19.0726C18.2824 19.4102 17.8246 19.5998 17.3472 19.5998ZM21.8472 19.5998C21.3698 19.5998 20.912 19.4102 20.5744 19.0726C20.2369 18.735 20.0472 18.2772 20.0472 17.7998V16.8998H23.6472V17.7998C23.6472 18.2772 23.4576 18.735 23.12 19.0726C22.7824 19.4102 22.3246 19.5998 21.8472 19.5998ZM26.3472 19.5998C25.8698 19.5998 25.412 19.4102 25.0744 19.0726C24.7369 18.735 24.5472 18.2772 24.5472 17.7998V16.8998H28.1472V17.7998C28.1472 18.2772 27.9576 18.735 27.62 19.0726C27.2824 19.4102 26.8246 19.5998 26.3472 19.5998ZM17.3472 26.7998H16.4472V20.3468C17.0145 20.5479 17.6327 20.5535 18.2035 20.3626C18.7743 20.1718 19.2649 19.7956 19.5972 19.2938C19.8435 19.665 20.1779 19.9694 20.5705 20.1798C20.9631 20.3903 21.4018 20.5002 21.8472 20.4998C22.2928 20.5001 22.7314 20.39 23.1241 20.1794C23.5167 19.9688 23.851 19.6643 24.0972 19.2929C24.4295 19.7947 24.9201 20.1709 25.4909 20.3617C26.0617 20.5526 26.6799 20.547 27.2472 20.3459V26.7998H21.8472V21.8498C21.8472 21.7305 21.7998 21.616 21.7154 21.5316C21.631 21.4472 21.5166 21.3998 21.3972 21.3998H17.7972C17.6779 21.3998 17.5634 21.4472 17.479 21.5316C17.3946 21.616 17.3472 21.7305 17.3472 21.8498V26.7998ZM19.2732 15.9998H16.0584L17.5578 14.1998H19.8726L19.2732 15.9998ZM23.4726 15.9998H20.2218L20.8212 14.1998H22.8732L23.4726 15.9998ZM24.4212 15.9998L23.8218 14.1998H26.1366L27.6369 15.9998H24.4212ZM18.2472 26.7998V22.2998H20.9472V26.7998H18.2472Z" fill="#0032C8"/>
</svg>
